<?xml version="1.0" encoding="utf-8"?>
<!-- Generator: Adobe Illustrator 13.0.0, SVG Export Plug-In . SVG Version: 6.00 Build 14948)  -->
<!DOCTYPE svg PUBLIC "-//W3C//DTD SVG 1.1//EN" "http://www.w3.org/Graphics/SVG/1.1/DTD/svg11.dtd">
<svg version="1.1" id="Layer_1" xmlns="http://www.w3.org/2000/svg" xmlns:xlink="http://www.w3.org/1999/xlink" x="0px" y="0px"
	 width="595.275px" height="841.89px" viewBox="0 0 595.275 841.89" style="enable-background:new 0 0 595.275 841.89;"
	 xml:space="preserve">
<path d="M258.324,233.407c0.568,0.046-1.44,0.996-1.984,1.263c-26.038,12.779-48.45,29.835-66.022,51.411
	c-17.982,22.079-32.362,49.179-38.783,82.618c-3.315,17.263-3.942,38.201-1.263,55.921c5.301,35.055,20.052,61.24,42.571,78.828
	c9.278,7.246,17.894,11.715,29.945,15.514c3.417,1.078,8.601,1.652,11.364,3.789c1.237,0.955,3.311,3.33,2.706,6.313
	c-0.915,4.512-11.018,6.275-15.875,7.035c-22.543,3.52-42.426-4.029-56.642-10.645c-20.915-9.729-37.488-24.268-51.23-40.406
	c-13.814-16.223-24.699-36.605-31.207-60.43c-6.333-23.184-9.186-54.696-3.428-82.077c-3.149,7.133-6.094,16.033-8.298,24.713
	c-0.329-26.407-0.18-56.483-0.18-83.52c0-7.627-0.524-14.384,0.541-20.384c1.006-5.666,3.068-10.526,6.133-14.792
	c5.49-7.641,14.315-14.325,27.239-15.153c12.666-0.811,25.76,0,38.603,0C180.956,233.407,219.552,233.407,258.324,233.407z
	 M526.742,409.105c-0.333,0.66-0.948-1.646-1.264-2.345c-13.4-29.852-34.671-53.248-61.691-69.811
	c-13.862-8.497-29.448-15.634-47.262-20.745c-17.622-5.056-37.62-8.64-59.709-7.757c-43.437,1.736-75.306,15.076-99.033,36.799
	c-11.304,10.349-21.265,25.156-27.239,40.587c-5.366,13.861-8.748,30.522-8.478,50.508c0.04,2.986,0.311,6.725-0.722,7.396
	c-1.838,1.199-4.679-2.5-5.953-3.969c-11.147-12.848-17.417-31.822-18.219-55.019c-0.938-27.138,5.361-50.689,13.349-70.171
	c7.85-19.146,20.698-34.705,35.537-48.344c12.412-11.409,26.578-22.037,43.654-29.583c2.473-1.093,5.443-2.947,7.937-3.247
	c4.018-0.483,8.45,0,12.809,0c54.757,0,109.146,0,164.333,0c8.606,0,17.563-0.696,24.353,0.902
	c12.622,2.971,22.071,11.999,25.978,24.713c2.002,6.52,1.623,15.289,1.623,23.631C526.74,324.745,526.743,366.576,526.742,409.105z
	 M464.147,612.222c-0.038-0.719,0.278-1.527,0.54-2.164c4.803-11.652,7.903-25.313,9.381-40.768
	c1.591-16.643,0.646-34.969-1.805-49.969c-4.904-30.043-15.119-55.252-29.943-77.025c-14.639-21.499-32.961-38.417-59.528-47.623
	c-12.671-4.391-29.779-7.129-47.262-5.231c-11.559,1.254-22.475,3.87-32.649,7.396c-2.209,0.765-8.743,2.994-10.644,0.541
	c-1.74-2.246,4.146-9.709,5.411-11.364c7.791-10.193,18.877-17.237,30.667-22.91c11.826-5.691,25.743-10.195,41.128-12.447
	c21.74-3.182,46.255-0.918,64.939,4.33c28.211,7.922,48.694,22.986,67.825,40.407c4.451,4.053,8.578,9.154,12.808,14.251
	c2.824,3.401,6.056,7.266,9.021,11.364c1.055,1.457,2.5,3.115,2.706,3.969c0.461,1.906,0,5.092,0,7.938
	c-0.001,39.049,0.002,78.131,0,117.072c0,10.906,0.869,21.648-0.36,30.846c-1.215,9.08-4.973,15.615-10.282,20.926
	c-4.947,4.947-11.988,9.193-20.926,10.281C485.725,613.193,474.971,611.558,464.147,612.222z M438.532,612.222
	c-26.396,0-52.793,0-79.19,0c1.585-3.271,3.834-5.275,5.772-7.938c5.584-7.664,10.831-16.352,14.973-25.795
	c5.423-12.367,9.74-26.74,9.74-44.736c0-26.191-8.427-46.264-18.58-63.137c-2.177-3.617-5.548-8.49-8.298-12.266
	c-1.799-2.471-3.928-6.104,1.083-6.494c4.275-0.332,9.273,2.193,13.168,4.33c9.584,5.258,18.252,12.299,25.435,19.48
	c19.821,19.82,35.211,45.619,38.784,81.355C443.308,575.919,441.899,595.189,438.532,612.222z M69.999,470.076
	c0.153-0.033,0.17,0.07,0.18,0.182c8.749,27.633,21.952,51.145,40.046,69.629c18.023,18.414,38.916,33.936,65.661,44.016
	c13.379,5.043,28.652,8.979,45.458,9.381c44.798,1.074,73.886-18.6,92.358-44.736c1.717-2.43,3.461-4.615,6.494-7.215
	c1.828-1.566,6.677-5.119,9.381-3.969c2.409,1.023,1.627,7.674,1.082,12.086c-1.495,12.1-6.798,22.658-11.726,30.846
	c-5.221,8.674-11.159,16.984-18.039,24.713c-1.862,2.094-5.524,7.033-8.118,7.217c-7.52,0.531-15.223-0.002-22.91,0
	c-52.868,0.002-106.518-0.004-159.283,0c-8.149,0-14.279-0.748-19.663-3.248c-9.622-4.469-17.708-13.611-20.203-25.254
	c-1.369-6.389-0.722-13.75-0.722-22.008C69.999,531.542,69.999,501.609,69.999,470.076z"/>
</svg>
